<svg width="100" height="100" viewBox="0 0 100 100" fill="none" xmlns="http://www.w3.org/2000/svg">
<rect width="100" height="100" rx="10" fill="#D4A574"/>
<path d="M75 50C75 45.0555 73.5338 40.222 70.7867 36.1107C68.0397 31.9995 64.1352 28.7952 59.5671 26.903C54.9989 25.0108 49.9723 24.5157 45.1227 25.4804C40.2732 26.445 35.8186 28.826 32.3223 32.3223C28.826 35.8186 26.445 40.2732 25.4804 45.1227C24.5157 49.9723 25.0108 54.9989 26.903 59.5671C28.7952 64.1352 31.9995 68.0397 36.1107 70.7867C40.222 73.5338 45.0555 75 50 75V62.5C47.5277 62.5 45.111 61.7669 43.0554 60.3934C40.9998 59.0199 39.3976 57.0676 38.4515 54.7835C37.5054 52.4995 37.2579 49.9861 37.7402 47.5614C38.2225 45.1366 39.413 42.9093 41.1612 41.1612C42.9093 39.413 45.1366 38.2225 47.5614 37.7402C49.9861 37.2579 52.4995 37.5054 54.7835 38.4515C57.0676 39.3976 59.0199 40.9998 60.3934 43.0554C61.7669 45.111 62.5 47.5277 62.5 50H75Z" fill="#1E1E1E"/>
<rect x="45" y="45" width="10" height="10" rx="2" fill="#1E1E1E"/>
</svg>
